REM DIRINDEX 1\2,1\3,1\4,1\5\6,1\5\7,1\8
REM DIRNAME folder01,folder02,folder03,folder04,folder05,folder06,folder07,folder08
TITLE ""
FILE "022 Åy022ÅzUnit2 (0241 notify_0252 nutritious).mp3" MP3
  TRACK 01 AUDIO
    TITLE "0:"
    INDEX 01 00:00:00
  TRACK 02 AUDIO
    TITLE "2:cjc115_0838"
    INDEX 01 00:00:07
  TRACK 03 AUDIO
    TITLE "0:"
    INDEX 01 00:01:34
  TRACK 04 AUDIO
    TITLE "3:cjc115_0839"
    INDEX 01 00:01:40
  TRACK 05 AUDIO
    TITLE "0:"
    INDEX 01 00:04:01
  TRACK 06 AUDIO
    TITLE "4:cjc115_0840"
    INDEX 01 00:04:07
  TRACK 07 AUDIO
    TITLE "0:"
    INDEX 01 00:08:52
  TRACK 08 AUDIO
    TITLE "2:cjc115_0841"
    INDEX 01 00:09:59
  TRACK 09 AUDIO
    TITLE "0:"
    INDEX 01 00:11:01
  TRACK 10 AUDIO
    TITLE "3:cjc115_0842"
    INDEX 01 00:11:09
  TRACK 11 AUDIO
    TITLE "0:"
    INDEX 01 00:13:00
  TRACK 12 AUDIO
    TITLE "4:cjc115_0843"
    INDEX 01 00:13:10
  TRACK 13 AUDIO
    TITLE "0:"
    INDEX 01 00:16:04
  TRACK 14 AUDIO
    TITLE "2:cjc115_0844"
    INDEX 01 00:17:12
  TRACK 15 AUDIO
    TITLE "0:"
    INDEX 01 00:18:31
  TRACK 16 AUDIO
    TITLE "3:cjc115_0845"
    INDEX 01 00:18:41
  TRACK 17 AUDIO
    TITLE "0:"
    INDEX 01 00:19:67
  TRACK 18 AUDIO
    TITLE "4:cjc115_0846"
    INDEX 01 00:20:00
  TRACK 19 AUDIO
    TITLE "0:"
    INDEX 01 00:24:12
  TRACK 20 AUDIO
    TITLE "2:cjc115_0847"
    INDEX 01 00:25:25
  TRACK 21 AUDIO
    TITLE "0:"
    INDEX 01 00:26:58
  TRACK 22 AUDIO
    TITLE "3:cjc115_0848"
    INDEX 01 00:26:67
  TRACK 23 AUDIO
    TITLE "0:"
    INDEX 01 00:29:58
  TRACK 24 AUDIO
    TITLE "4:cjc115_0849"
    INDEX 01 00:29:64
  TRACK 25 AUDIO
    TITLE "0:"
    INDEX 01 00:33:60
  TRACK 26 AUDIO
    TITLE "2:cjc115_0850"
    INDEX 01 00:34:71
  TRACK 27 AUDIO
    TITLE "0:"
    INDEX 01 00:36:15
  TRACK 28 AUDIO
    TITLE "3:cjc115_0851"
    INDEX 01 00:36:25
  TRACK 29 AUDIO
    TITLE "0:"
    INDEX 01 00:37:22
  TRACK 30 AUDIO
    TITLE "4:cjc115_0852"
    INDEX 01 00:37:32
  TRACK 31 AUDIO
    TITLE "0:"
    INDEX 01 00:40:72
  TRACK 32 AUDIO
    TITLE "2:cjc115_0853"
    INDEX 01 00:42:08
  TRACK 33 AUDIO
    TITLE "0:"
    INDEX 01 00:43:21
  TRACK 34 AUDIO
    TITLE "3:cjc115_0854"
    INDEX 01 00:43:33
  TRACK 35 AUDIO
    TITLE "0:"
    INDEX 01 00:44:42
  TRACK 36 AUDIO
    TITLE "4:cjc115_0855"
    INDEX 01 00:44:50
  TRACK 37 AUDIO
    TITLE "0:"
    INDEX 01 00:48:24
  TRACK 38 AUDIO
    TITLE "2:cjc115_0856"
    INDEX 01 00:49:33
  TRACK 39 AUDIO
    TITLE "0:"
    INDEX 01 00:50:46
  TRACK 40 AUDIO
    TITLE "3:cjc115_0857"
    INDEX 01 00:50:52
  TRACK 41 AUDIO
    TITLE "0:"
    INDEX 01 00:51:67
  TRACK 42 AUDIO
    TITLE "4:cjc115_0858"
    INDEX 01 00:52:02
  TRACK 43 AUDIO
    TITLE "0:"
    INDEX 01 00:54:66
  TRACK 44 AUDIO
    TITLE "2:cjc115_0859"
    INDEX 01 00:56:00
  TRACK 45 AUDIO
    TITLE "0:"
    INDEX 01 00:57:25
  TRACK 46 AUDIO
    TITLE "3:cjc115_0860"
    INDEX 01 00:57:33
  TRACK 47 AUDIO
    TITLE "0:"
    INDEX 01 01:00:37
  TRACK 48 AUDIO
    TITLE "4:cjc115_0861"
    INDEX 01 01:00:47
  TRACK 49 AUDIO
    TITLE "0:"
    INDEX 01 01:04:13
  TRACK 50 AUDIO
    TITLE "2:cjc115_0862"
    INDEX 01 01:05:21
  TRACK 51 AUDIO
    TITLE "0:"
    INDEX 01 01:06:28
  TRACK 52 AUDIO
    TITLE "3:cjc115_0863"
    INDEX 01 01:06:38
  TRACK 53 AUDIO
    TITLE "0:"
    INDEX 01 01:07:45
  TRACK 54 AUDIO
    TITLE "4:cjc115_0864"
    INDEX 01 01:07:55
  TRACK 55 AUDIO
    TITLE "0:"
    INDEX 01 01:11:00
  TRACK 56 AUDIO
    TITLE "2:cjc115_0865"
    INDEX 01 01:12:09
  TRACK 57 AUDIO
    TITLE "0:"
    INDEX 01 01:13:24
  TRACK 58 AUDIO
    TITLE "3:cjc115_0866"
    INDEX 01 01:13:34
  TRACK 59 AUDIO
    TITLE "0:"
    INDEX 01 01:15:03
  TRACK 60 AUDIO
    TITLE "4:cjc115_0867"
    INDEX 01 01:15:11
  TRACK 61 AUDIO
    TITLE "0:"
    INDEX 01 01:19:36
  TRACK 62 AUDIO
    TITLE "2:cjc115_0868"
    INDEX 01 01:20:48
  TRACK 63 AUDIO
    TITLE "0:"
    INDEX 01 01:21:61
  TRACK 64 AUDIO
    TITLE "3:cjc115_0869"
    INDEX 01 01:21:70
  TRACK 65 AUDIO
    TITLE "0:"
    INDEX 01 01:23:69
  TRACK 66 AUDIO
    TITLE "4:cjc115_0870"
    INDEX 01 01:24:04
  TRACK 67 AUDIO
    TITLE "0:"
    INDEX 01 01:26:25
  TRACK 68 AUDIO
    TITLE "2:cjc115_0871"
    INDEX 01 01:27:34
  TRACK 69 AUDIO
    TITLE "0:"
    INDEX 01 01:28:67
  TRACK 70 AUDIO
    TITLE "3:cjc115_0872"
    INDEX 01 01:29:01
  TRACK 71 AUDIO
    TITLE "0:"
    INDEX 01 01:30:32
  TRACK 72 AUDIO
    TITLE "4:cjc115_0873"
    INDEX 01 01:30:42
  TRACK 73 AUDIO
    TITLE "0:"
    INDEX 01 01:34:46
